<svg xmlns="http://www.w3.org/2000/svg" version="1.1" xmlnsXlink="http://www.w3.org/1999/xlink" xmlnssvgjs="http://svgjs.com/svgjs" width="40" height="40" x="0" y="0" viewBox="0 0 512 512" style="enable-background:new 0 0 512 512" xmlSpace="preserve" class=""><g><g xmlns="http://www.w3.org/2000/svg" id="_x34_48_x2C___clothes_x2C__dad_x2C__father_x2C__fathers_day"><path d="m413 49.986h-41.793c-1.399-16.156-14.943-30-32.799-30-21.077 0-155.434 0-163.014 0-17.808 0-31.386 13.791-32.79 30h-43.604c-20.953 0-38 16.213-38 36.142v369.745c0 19.928 17.047 36.141 38 36.141h314c20.953 0 38-16.214 38-36.143v-369.743c0-19.929-17.047-36.142-38-36.142zm-62.334 6.897-34.322 105.142-43.521-40.381 67.854-81.463c7.392 1.289 12.511 8.976 9.989 16.702zm-45.42 361.616-49.246 47.582-43.445-41.977 83.572-58.501zm-60.823-218.513h23.153l5.71 33.124-39.063 26.042zm-14.881 86.325 47.461-31.642 5.086 29.501-59.926 44.944zm-12.329 71.516 68.692-51.52 6.467 37.512-82.728 57.909zm53.787-177.841h-30v-29.118l17.759-14.99 12.558 11.651c-.576 2.272-.201.999-.317 32.457zm-12.109-72.865-58.663-67.135h114.581zm-93.882-61.884c2.128-2.892 5.254-4.715 8.747-5.15l71.092 81.36-48.782 41.176-32.891-105.61v-.001c-.009-.133-2.384-6.042 1.834-11.775zm-84.009 410.636v-369.745c0-8.9 8.075-16.142 18-16.142h47.268l35.184 112.974c2.124 6.817 10.541 9.277 15.998 4.668l23.55-19.878v22.236c0 3.058 1.376 5.79 3.538 7.625l-38.393 222.703c-.563 3.262.525 6.591 2.906 8.891l44.306 42.809h-134.357c-9.925 0-18-7.241-18-16.141zm350-.002c0 8.901-8.075 16.143-18 16.143h-134.357l44.306-42.809c2.381-2.3 3.469-5.629 2.906-8.891l-38.393-222.704c2.162-1.834 3.538-4.566 3.538-7.624v-24.194l23.198 21.524c5.233 4.861 14.012 2.811 16.308-4.228l36.921-113.103h45.573c9.925 0 18 7.241 18 16.142z" fill="currentColor" data-original="#000000" class=""></path></g></g></svg>