<svg xmlns="http://www.w3.org/2000/svg" version="1.1" xmlnsxlink="http://www.w3.org/1999/xlink" xmlnssvgjs="http://svgjs.com/svgjs" width="20" height="20" x="0" y="0" viewBox="0 0 24 24" style="enable-background:new 0 0 512 512" xmlspace="preserve" class=""><g><path xmlns="http://www.w3.org/2000/svg" d="m15 0h-6a3 3 0 0 0 -3 3v1h-4a1 1 0 0 0 0 2h1.054l.846 15.167a3 3 0 0 0 3 2.833h10.208a3 3 0 0 0 3-2.833l.838-15.167h1.054a1 1 0 0 0 0-2h-4v-1a3 3 0 0 0 -3-3zm-7 3a1 1 0 0 1 1-1h6a1 1 0 0 1 1 1v1h-8zm10.106 18.056a1 1 0 0 1 -1 .944h-10.214a1 1 0 0 1 -1-.944l-.835-15.056h13.886z" fill="currentColor" data-original="#000000" class=""></path><path xmlns="http://www.w3.org/2000/svg" d="m12 10a1 1 0 0 0 -1 1v6a1 1 0 0 0 2 0v-6a1 1 0 0 0 -1-1z" fill="currentColor" data-original="#000000" class=""></path><path xmlns="http://www.w3.org/2000/svg" d="m16 10a1 1 0 0 0 -1 1v6a1 1 0 0 0 2 0v-6a1 1 0 0 0 -1-1z" fill="currentColor" data-original="#000000" class=""></path><path xmlns="http://www.w3.org/2000/svg" d="m8 10a1 1 0 0 0 -1 1v6a1 1 0 0 0 2 0v-6a1 1 0 0 0 -1-1z" fill="currentColor" data-original="#000000" class=""></path></g></svg>