<svg xmlns="http://www.w3.org/2000/svg" version="1.1" xmlnsXlink="http://www.w3.org/1999/xlink" xmlnssvgjs="http://svgjs.com/svgjs" width="40" height="40" x="0" y="0" viewBox="0 0 512 512" style="enable-background:new 0 0 512 512" xmlSpace="preserve" class=""><g><path xmlns="http://www.w3.org/2000/svg" d="M407.5,453.222,328,238.566V208c0-17.882,3.289-28.534,7.1-40.869C339.271,153.617,344,138.3,344,112c0-27.968-23.549-88.362-24.552-90.92A8,8,0,0,0,312,16H288a8,8,0,0,0-7.951,7.117l-2.074,18.662A291.853,291.853,0,0,1,256,125.021a291.853,291.853,0,0,1-21.975-83.242l-2.074-18.662A8,8,0,0,0,224,16H200a8,8,0,0,0-7.448,5.08C191.549,23.638,168,84.032,168,112c0,26.3,4.729,41.617,8.9,55.131,3.809,12.335,7.1,22.987,7.1,40.869v30.566L104.5,453.222a8,8,0,0,0,3.924,9.933C111.1,464.5,175.042,496,256,496s144.9-31.5,147.578-32.845A8,8,0,0,0,407.5,453.222ZM205.516,32H216.84l1.283,11.546a307.92,307.92,0,0,0,30.722,104.032,8,8,0,0,0,14.31,0A307.92,307.92,0,0,0,293.877,43.546L295.16,32h11.325c2.236,5.972,6.1,16.589,9.926,28.492C323.993,84.074,328,101.885,328,112c0,23.886-4.164,37.371-8.19,50.411C316.5,173.126,313.1,184.168,312.224,200H199.776c-.878-15.832-4.277-26.874-7.586-37.589C188.164,149.371,184,135.886,184,112,184,91.343,199.9,47.005,205.516,32ZM200,232V216H312v16Zm56,248c-62.682,0-115.917-20.422-133.914-28.2L197.568,248H214.1L192.178,350.324l15.644,3.352L230.467,248H248v64h16V248h17.533l22.645,105.676,15.644-3.352L297.9,248h16.536l75.482,203.8C371.915,459.579,318.682,480,256,480Z" fill="currentColor" data-original="#000000"></path></g></svg>