<svg xmlns="http://www.w3.org/2000/svg" version="1.1" xmlnsXlink="http://www.w3.org/1999/xlink" xmlnssvgjs="http://svgjs.com/svgjs" width="40" height="40" x="0" y="0" viewBox="0 0 422.501 422.501" style="enable-background:new 0 0 512 512" xmlSpace="preserve" class="hovered-paths"><g>
<g xmlns="http://www.w3.org/2000/svg">
	<g>
		<path d="M233.082,179.783l47.742-31.258c2.93-1.918,4.142-5.608,2.921-8.89l-14.211-38.194c-1.093-2.937-3.896-4.885-7.029-4.885    H159.997c-3.134,0-5.936,1.948-7.029,4.885l-14.211,38.194c-1.221,3.282-0.009,6.972,2.921,8.89l47.742,31.258    c-57.077,10.323-100.505,60.375-100.505,120.379c0,67.458,54.88,122.339,122.336,122.339s122.336-54.88,122.336-122.339    C333.586,240.157,290.159,190.107,233.082,179.783z M211.251,407.501c-59.186,0-107.336-48.151-107.336-107.339    c0-59.183,48.15-107.333,107.336-107.333s107.336,48.15,107.336,107.333C318.586,359.35,270.436,407.501,211.251,407.501z     M211.407,112.739l37.631,22.011h-75.453L211.407,112.739z M257.293,111.556l5.061,13.605l-23.26-13.605H257.293z     M165.209,111.556h18.409l-23.496,13.673L165.209,111.556z M170.933,149.749h80.635l-40.317,26.398L170.933,149.749z" fill="currentColor" data-original="#000000" class="hovered-path"></path>
		<path d="M211.251,212.204c-48.502,0-87.961,39.458-87.961,87.958c0,48.504,39.459,87.964,87.961,87.964    s87.961-39.46,87.961-87.964C299.211,251.662,259.753,212.204,211.251,212.204z M211.251,373.126    c-40.231,0-72.961-32.731-72.961-72.964c0-40.229,32.73-72.958,72.961-72.958s72.961,32.729,72.961,72.958    C284.211,340.395,251.481,373.126,211.251,373.126z" fill="currentColor" data-original="#000000" class="hovered-path"></path>
		<path d="M210.696,49.291c4.143,0,7.5-3.358,7.5-7.5V7.5c0-4.142-3.357-7.5-7.5-7.5s-7.5,3.358-7.5,7.5v34.291    C203.196,45.933,206.553,49.291,210.696,49.291z" fill="currentColor" data-original="#000000" class="hovered-path"></path>
		<path d="M108.483,152.059c0-4.142-3.357-7.5-7.5-7.5H66.692c-4.143,0-7.5,3.358-7.5,7.5c0,4.142,3.357,7.5,7.5,7.5h34.291    C105.126,159.559,108.483,156.201,108.483,152.059z" fill="currentColor" data-original="#000000" class="hovered-path"></path>
		<path d="M355.809,144.559h-34.291c-4.143,0-7.5,3.358-7.5,7.5c0,4.142,3.357,7.5,7.5,7.5h34.291c4.143,0,7.5-3.358,7.5-7.5    C363.309,147.917,359.952,144.559,355.809,144.559z" fill="currentColor" data-original="#000000" class="hovered-path"></path>
		<path d="M127.419,80.624c1.465,1.465,3.384,2.197,5.304,2.197c1.919,0,3.839-0.732,5.303-2.197    c2.93-2.929,2.93-7.677,0.001-10.606l-24.246-24.248c-2.929-2.929-7.678-2.93-10.606,0c-2.93,2.929-2.93,7.677-0.001,10.606    L127.419,80.624z" fill="currentColor" data-original="#000000" class="hovered-path"></path>
		<path d="M288.667,82.821c1.919,0,3.839-0.732,5.304-2.197l24.246-24.247c2.929-2.929,2.929-7.678-0.001-10.606    c-2.928-2.93-7.677-2.929-10.606,0l-24.246,24.248c-2.929,2.929-2.929,7.678,0.001,10.606    C284.828,82.089,286.748,82.821,288.667,82.821z" fill="currentColor" data-original="#000000" class="hovered-path"></path>
	</g>
</g>
<g xmlns="http://www.w3.org/2000/svg">
</g>
<g xmlns="http://www.w3.org/2000/svg">
</g>
<g xmlns="http://www.w3.org/2000/svg">
</g>
<g xmlns="http://www.w3.org/2000/svg">
</g>
<g xmlns="http://www.w3.org/2000/svg">
</g>
<g xmlns="http://www.w3.org/2000/svg">
</g>
<g xmlns="http://www.w3.org/2000/svg">
</g>
<g xmlns="http://www.w3.org/2000/svg">
</g>
<g xmlns="http://www.w3.org/2000/svg">
</g>
<g xmlns="http://www.w3.org/2000/svg">
</g>
<g xmlns="http://www.w3.org/2000/svg">
</g>
<g xmlns="http://www.w3.org/2000/svg">
</g>
<g xmlns="http://www.w3.org/2000/svg">
</g>
<g xmlns="http://www.w3.org/2000/svg">
</g>
<g xmlns="http://www.w3.org/2000/svg">
</g>
</g></svg>